<svg width="150" height="191" viewBox="0 0 150 191" fill="none" xmlns="http://www.w3.org/2000/svg">
<path d="M75 0C55.116 0.0235928 36.0532 7.93293 21.993 21.993C7.93293 36.0532 0.0235928 55.116 0 75C0 139.173 68.1818 187.646 71.0849 189.677C72.233 190.479 73.5996 190.909 75 190.909C76.4004 190.909 77.767 190.479 78.9151 189.677C81.8182 187.646 150 139.173 150 75C149.976 55.116 142.067 36.0532 128.007 21.993C113.947 7.93293 94.884 0.0235905 75 0V0ZM75.005 47.7297C80.399 47.7297 85.6719 49.3293 90.1569 52.326C94.6419 55.3228 98.1375 59.5822 100.202 64.5656C102.266 69.5491 102.806 75.0327 101.754 80.3231C100.701 85.6135 98.1039 90.473 94.2897 94.2872C90.4756 98.1014 85.616 100.699 80.3256 101.751C75.0352 102.803 69.5516 102.263 64.5682 100.199C59.5847 98.135 55.3253 94.6394 52.3286 90.1544C49.3318 85.6694 47.7323 80.3965 47.7323 75.0025C47.7322 71.4209 48.4375 67.8745 49.8081 64.5655C51.1786 61.2566 53.1875 58.25 55.72 55.7175C58.2526 53.185 61.2591 51.1761 64.5681 49.8055C67.877 48.435 71.4235 47.7296 75.005 47.7297V47.7297Z" fill="black"/>
</svg>
